<?xml version="1.0" encoding="utf-8"?>
<!-- Generator: Adobe Illustrator 27.0.0, SVG Export Plug-In . SVG Version: 6.00 Build 0)  -->
<svg version="1.1" id="Layer_1" xmlns="http://www.w3.org/2000/svg" xmlns:xlink="http://www.w3.org/1999/xlink" x="0px" y="0px"
	 viewBox="0 0 512 512" style="enable-background:new 0 0 512 512;" xml:space="preserve">
<style type="text/css">
	.st0{fill:#FFFFFF;}
	.st1{fill:#FAA61A;}
</style>
<g id="XMLID_1_">
	<polygon id="XMLID_3_" class="st0" points="128.07,34.23 0,256 128.07,477.77 384.07,477.77 512,256 384.07,34.23 	"/>
	<path id="XMLID_4_" d="M381.26,39c1.4,2.38,123.86,214.76,125.26,217c-1.4,2.38-123.86,214.62-125.26,217H130.74
		c-1.4-2.38-123.86-214.62-125.26-217c1.4-2.38,123.86-214.62,125.26-217L381.26,39L381.26,39z"/>
	<polygon id="XMLID_5_" class="st0" points="151.92,75.61 47.69,256 151.92,436.39 360.08,436.39 464.17,256 360.08,75.61 	"/>
	<path id="XMLID_6_" class="st1" d="M356.44,81.92c1.82,3.09,98.61,170.99,100.44,174.08c-1.82,3.09-98.61,170.99-100.44,174.08
		H155.56C153.74,426.99,56.95,259.09,55.13,256c1.82-3.09,98.61-170.99,100.44-174.08H356.44L356.44,81.92z"/>
	<polygon id="XMLID_7_" points="226.68,173.52 285.04,173.52 316.18,95.25 400.62,266.8 309.3,320.67 280.13,416.75 231.87,416.75 
		202.7,320.53 111.38,266.8 195.68,95.25 	"/>
	<polygon id="XMLID_8_" class="st0" points="316.32,236.92 316.32,283.07 273.11,283.07 	"/>
	<polygon id="XMLID_9_" class="st0" points="195.68,283.07 195.68,236.92 238.75,283.07 	"/>
</g>
</svg>
